# xmcd
#
# Track frame offsets: 
#        225
#        12582
#        24305
#        33713
#        50141
#        61212
#        72290
#        83443
#        93531
#        106763
#        122587
#        138820
#        149970
#        161370
#        173024
#        188360
#
# Disc length: 2667 seconds
#
# Revision: 1
# Processed by: cddbd v1.5.2PL0 Copyright (c) Steve Scherf et al.
# Submitted via: ExactAudioCopy v0.95a5
#
DISCID=d20a6810
DTITLE=林竹君 - 愛的禮物
DYEAR=1993
DGENRE=Oldies
TTITLE0=愛的禮物
TTITLE1=愛的你呀何處尋
TTITLE2=第一次見到你
TTITLE3=往事難追憶
TTITLE4=江水攸攸淚\長流
TTITLE5=雨夜花之戀
TTITLE6=小小水仙花
TTITLE7=情花
TTITLE8=愛的寂寞
TTITLE9=千言萬語
TTITLE10=多少歡笑多少淚\
TTITLE11=往事何苦提
TTITLE12=舊夢難圓
TTITLE13=飛翔
TTITLE14=一簾幽夢
TTITLE15=小天堂
EXTD=
EXTT0=
EXTT1=
EXTT2=
EXTT3=
EXTT4=
EXTT5=
EXTT6=
EXTT7=
EXTT8=
EXTT9=
EXTT10=
EXTT11=
EXTT12=
EXTT13=
EXTT14=
EXTT15=
PLAYORDER=
